<mxfile host="app.diagrams.net" modified="2023-04-12T03:09:31.316Z" agent="Mozilla/5.0 (Macintosh; Intel Mac OS X 10_15_7) AppleWebKit/537.36 (KHTML, like Gecko) Chrome/111.0.0.0 Safari/537.36" etag="SdEAqIBRZE5mr2kSgI0n" version="21.1.6" type="github">
  <diagram id="71HEty5VBtyouMogBHfI" name="第 1 页">
    <mxGraphModel dx="660" dy="1818" grid="1" gridSize="10" guides="1" tooltips="1" connect="1" arrows="1" fold="1" page="1" pageScale="1" pageWidth="827" pageHeight="1169" math="0" shadow="0">
      <root>
        <mxCell id="0" />
        <mxCell id="1" parent="0" />
        <mxCell id="Q1WMoiGNrO2WjmOugSal-1" value="" style="rounded=1;whiteSpace=wrap;html=1;" vertex="1" parent="1">
          <mxGeometry x="270" y="280" width="340" height="370" as="geometry" />
        </mxCell>
        <mxCell id="Q1WMoiGNrO2WjmOugSal-2" value="&lt;font style=&quot;font-size: 14px;&quot;&gt;Software Catalog&lt;/font&gt;" style="text;strokeColor=none;align=center;fillColor=none;html=1;verticalAlign=middle;whiteSpace=wrap;rounded=0;" vertex="1" parent="1">
          <mxGeometry x="375" y="300" width="120" height="30" as="geometry" />
        </mxCell>
        <mxCell id="Q1WMoiGNrO2WjmOugSal-26" style="edgeStyle=orthogonalEdgeStyle;rounded=0;orthogonalLoop=1;jettySize=auto;html=1;exitX=0.5;exitY=0;exitDx=0;exitDy=0;entryX=0.179;entryY=0.973;entryDx=0;entryDy=0;entryPerimeter=0;" edge="1" parent="1" source="Q1WMoiGNrO2WjmOugSal-3" target="Q1WMoiGNrO2WjmOugSal-13">
          <mxGeometry relative="1" as="geometry" />
        </mxCell>
        <mxCell id="Q1WMoiGNrO2WjmOugSal-3" value="&lt;font style=&quot;font-size: 14px;&quot;&gt;scorecard&lt;/font&gt;" style="ellipse;whiteSpace=wrap;html=1;" vertex="1" parent="1">
          <mxGeometry x="310" y="450" width="95" height="70" as="geometry" />
        </mxCell>
        <mxCell id="Q1WMoiGNrO2WjmOugSal-25" style="edgeStyle=orthogonalEdgeStyle;rounded=0;orthogonalLoop=1;jettySize=auto;html=1;exitX=0.5;exitY=0;exitDx=0;exitDy=0;entryX=0.816;entryY=0.996;entryDx=0;entryDy=0;entryPerimeter=0;" edge="1" parent="1" source="Q1WMoiGNrO2WjmOugSal-4" target="Q1WMoiGNrO2WjmOugSal-13">
          <mxGeometry relative="1" as="geometry" />
        </mxCell>
        <mxCell id="Q1WMoiGNrO2WjmOugSal-4" value="&lt;font style=&quot;font-size: 14px;&quot;&gt;project controller&lt;/font&gt;" style="ellipse;whiteSpace=wrap;html=1;" vertex="1" parent="1">
          <mxGeometry x="475" y="450" width="95" height="70" as="geometry" />
        </mxCell>
        <mxCell id="Q1WMoiGNrO2WjmOugSal-28" style="edgeStyle=orthogonalEdgeStyle;rounded=0;orthogonalLoop=1;jettySize=auto;html=1;exitX=0.5;exitY=1;exitDx=0;exitDy=0;entryX=1;entryY=0.5;entryDx=0;entryDy=0;" edge="1" parent="1" source="Q1WMoiGNrO2WjmOugSal-6" target="Q1WMoiGNrO2WjmOugSal-7">
          <mxGeometry relative="1" as="geometry" />
        </mxCell>
        <mxCell id="Q1WMoiGNrO2WjmOugSal-29" style="edgeStyle=orthogonalEdgeStyle;rounded=0;orthogonalLoop=1;jettySize=auto;html=1;exitX=0.5;exitY=1;exitDx=0;exitDy=0;entryX=0;entryY=0.5;entryDx=0;entryDy=0;" edge="1" parent="1" source="Q1WMoiGNrO2WjmOugSal-6" target="Q1WMoiGNrO2WjmOugSal-15">
          <mxGeometry relative="1" as="geometry" />
        </mxCell>
        <mxCell id="Q1WMoiGNrO2WjmOugSal-37" style="edgeStyle=orthogonalEdgeStyle;rounded=0;orthogonalLoop=1;jettySize=auto;html=1;exitX=1;exitY=0.5;exitDx=0;exitDy=0;entryX=0;entryY=0.5;entryDx=0;entryDy=0;" edge="1" parent="1" source="Q1WMoiGNrO2WjmOugSal-6" target="Q1WMoiGNrO2WjmOugSal-8">
          <mxGeometry relative="1" as="geometry" />
        </mxCell>
        <mxCell id="Q1WMoiGNrO2WjmOugSal-6" value="&lt;font style=&quot;font-size: 14px;&quot;&gt;Trigger&lt;/font&gt;" style="ellipse;whiteSpace=wrap;html=1;" vertex="1" parent="1">
          <mxGeometry x="380" y="550" width="120" height="60" as="geometry" />
        </mxCell>
        <mxCell id="Q1WMoiGNrO2WjmOugSal-22" style="edgeStyle=orthogonalEdgeStyle;rounded=0;orthogonalLoop=1;jettySize=auto;html=1;exitX=0.5;exitY=0;exitDx=0;exitDy=0;entryX=0.5;entryY=1;entryDx=0;entryDy=0;" edge="1" parent="1" source="Q1WMoiGNrO2WjmOugSal-7" target="Q1WMoiGNrO2WjmOugSal-3">
          <mxGeometry relative="1" as="geometry" />
        </mxCell>
        <mxCell id="Q1WMoiGNrO2WjmOugSal-7" value="&lt;font style=&quot;font-size: 14px;&quot;&gt;ATP Platform&lt;/font&gt;" style="rounded=0;whiteSpace=wrap;html=1;" vertex="1" parent="1">
          <mxGeometry x="298" y="710" width="120" height="60" as="geometry" />
        </mxCell>
        <mxCell id="Q1WMoiGNrO2WjmOugSal-41" style="edgeStyle=none;rounded=0;orthogonalLoop=1;jettySize=auto;html=1;exitX=0.5;exitY=0;exitDx=0;exitDy=0;entryX=1;entryY=0.5;entryDx=0;entryDy=0;" edge="1" parent="1" source="Q1WMoiGNrO2WjmOugSal-8" target="Q1WMoiGNrO2WjmOugSal-4">
          <mxGeometry relative="1" as="geometry" />
        </mxCell>
        <mxCell id="Q1WMoiGNrO2WjmOugSal-8" value="&lt;font style=&quot;font-size: 14px;&quot;&gt;Machine Pool&lt;/font&gt;" style="rounded=0;whiteSpace=wrap;html=1;" vertex="1" parent="1">
          <mxGeometry x="640" y="580" width="120" height="60" as="geometry" />
        </mxCell>
        <mxCell id="Q1WMoiGNrO2WjmOugSal-40" style="rounded=0;orthogonalLoop=1;jettySize=auto;html=1;exitX=0.5;exitY=1;exitDx=0;exitDy=0;entryX=1;entryY=0.5;entryDx=0;entryDy=0;" edge="1" parent="1" source="Q1WMoiGNrO2WjmOugSal-9" target="Q1WMoiGNrO2WjmOugSal-4">
          <mxGeometry relative="1" as="geometry">
            <mxPoint x="580" y="480" as="targetPoint" />
          </mxGeometry>
        </mxCell>
        <mxCell id="Q1WMoiGNrO2WjmOugSal-9" value="&lt;font style=&quot;font-size: 14px;&quot;&gt;Licence Center&lt;/font&gt;" style="rounded=0;whiteSpace=wrap;html=1;" vertex="1" parent="1">
          <mxGeometry x="640" y="340" width="120" height="60" as="geometry" />
        </mxCell>
        <mxCell id="Q1WMoiGNrO2WjmOugSal-19" style="edgeStyle=orthogonalEdgeStyle;rounded=0;orthogonalLoop=1;jettySize=auto;html=1;exitX=0.5;exitY=1;exitDx=0;exitDy=0;entryX=0;entryY=0.5;entryDx=0;entryDy=0;" edge="1" parent="1" source="Q1WMoiGNrO2WjmOugSal-10" target="Q1WMoiGNrO2WjmOugSal-3">
          <mxGeometry relative="1" as="geometry" />
        </mxCell>
        <mxCell id="Q1WMoiGNrO2WjmOugSal-20" style="edgeStyle=orthogonalEdgeStyle;rounded=0;orthogonalLoop=1;jettySize=auto;html=1;exitX=1;exitY=0.5;exitDx=0;exitDy=0;entryX=0;entryY=0.5;entryDx=0;entryDy=0;" edge="1" parent="1" source="Q1WMoiGNrO2WjmOugSal-10" target="Q1WMoiGNrO2WjmOugSal-13">
          <mxGeometry relative="1" as="geometry" />
        </mxCell>
        <mxCell id="Q1WMoiGNrO2WjmOugSal-10" value="&lt;font style=&quot;font-size: 14px;&quot;&gt;Gitlab&lt;/font&gt;" style="rounded=0;whiteSpace=wrap;html=1;" vertex="1" parent="1">
          <mxGeometry x="120" y="345" width="120" height="60" as="geometry" />
        </mxCell>
        <mxCell id="Q1WMoiGNrO2WjmOugSal-21" style="edgeStyle=orthogonalEdgeStyle;rounded=0;orthogonalLoop=1;jettySize=auto;html=1;exitX=1;exitY=0.5;exitDx=0;exitDy=0;" edge="1" parent="1" source="Q1WMoiGNrO2WjmOugSal-11" target="Q1WMoiGNrO2WjmOugSal-3">
          <mxGeometry relative="1" as="geometry" />
        </mxCell>
        <mxCell id="Q1WMoiGNrO2WjmOugSal-11" value="&lt;font style=&quot;font-size: 14px;&quot;&gt;JIRA&lt;/font&gt;" style="rounded=0;whiteSpace=wrap;html=1;" vertex="1" parent="1">
          <mxGeometry x="120" y="570" width="120" height="60" as="geometry" />
        </mxCell>
        <mxCell id="Q1WMoiGNrO2WjmOugSal-18" style="edgeStyle=orthogonalEdgeStyle;rounded=0;orthogonalLoop=1;jettySize=auto;html=1;exitX=0.25;exitY=0;exitDx=0;exitDy=0;entryX=0.5;entryY=0;entryDx=0;entryDy=0;" edge="1" parent="1" source="Q1WMoiGNrO2WjmOugSal-13" target="Q1WMoiGNrO2WjmOugSal-10">
          <mxGeometry relative="1" as="geometry" />
        </mxCell>
        <mxCell id="Q1WMoiGNrO2WjmOugSal-24" style="edgeStyle=orthogonalEdgeStyle;rounded=0;orthogonalLoop=1;jettySize=auto;html=1;exitX=0.5;exitY=1;exitDx=0;exitDy=0;" edge="1" parent="1" source="Q1WMoiGNrO2WjmOugSal-13" target="Q1WMoiGNrO2WjmOugSal-6">
          <mxGeometry relative="1" as="geometry" />
        </mxCell>
        <mxCell id="Q1WMoiGNrO2WjmOugSal-13" value="&lt;font style=&quot;font-size: 14px;&quot;&gt;Resources&lt;br&gt;(recipe/buf/api/git/project/svc)&lt;br&gt;&lt;/font&gt;" style="rounded=1;whiteSpace=wrap;html=1;" vertex="1" parent="1">
          <mxGeometry x="310" y="350" width="260" height="50" as="geometry" />
        </mxCell>
        <mxCell id="Q1WMoiGNrO2WjmOugSal-15" value="&lt;font style=&quot;font-size: 14px;&quot;&gt;Email/DingTalk&lt;/font&gt;" style="rounded=0;whiteSpace=wrap;html=1;" vertex="1" parent="1">
          <mxGeometry x="462.5" y="710" width="120" height="60" as="geometry" />
        </mxCell>
        <mxCell id="Q1WMoiGNrO2WjmOugSal-39" style="edgeStyle=orthogonalEdgeStyle;rounded=0;orthogonalLoop=1;jettySize=auto;html=1;exitX=0;exitY=0.5;exitDx=0;exitDy=0;" edge="1" parent="1" source="Q1WMoiGNrO2WjmOugSal-27" target="Q1WMoiGNrO2WjmOugSal-4">
          <mxGeometry relative="1" as="geometry" />
        </mxCell>
        <mxCell id="Q1WMoiGNrO2WjmOugSal-27" value="&lt;font style=&quot;font-size: 14px;&quot;&gt;User&lt;/font&gt;" style="rounded=0;whiteSpace=wrap;html=1;" vertex="1" parent="1">
          <mxGeometry x="670" y="455" width="120" height="60" as="geometry" />
        </mxCell>
        <mxCell id="Q1WMoiGNrO2WjmOugSal-30" value="&lt;font style=&quot;font-size: 14px;&quot;&gt;Webhook&lt;/font&gt;" style="text;strokeColor=none;align=center;fillColor=none;html=1;verticalAlign=middle;whiteSpace=wrap;rounded=0;" vertex="1" parent="1">
          <mxGeometry x="450" y="660" width="60" height="30" as="geometry" />
        </mxCell>
        <mxCell id="Q1WMoiGNrO2WjmOugSal-31" value="&lt;font style=&quot;font-size: 14px;&quot;&gt;Quality&lt;br&gt;Report&lt;br&gt;&lt;/font&gt;" style="text;strokeColor=none;align=center;fillColor=none;html=1;verticalAlign=middle;whiteSpace=wrap;rounded=0;" vertex="1" parent="1">
          <mxGeometry x="290" y="660" width="60" height="30" as="geometry" />
        </mxCell>
        <mxCell id="Q1WMoiGNrO2WjmOugSal-32" value="&lt;font style=&quot;font-size: 14px;&quot;&gt;Issue/Oncall&lt;/font&gt;" style="text;strokeColor=none;align=center;fillColor=none;html=1;verticalAlign=middle;whiteSpace=wrap;rounded=0;" vertex="1" parent="1">
          <mxGeometry x="260" y="570" width="60" height="30" as="geometry" />
        </mxCell>
        <mxCell id="Q1WMoiGNrO2WjmOugSal-33" value="&lt;font style=&quot;font-size: 14px;&quot;&gt;Code Scanning&lt;/font&gt;" style="text;strokeColor=none;align=center;fillColor=none;html=1;verticalAlign=middle;whiteSpace=wrap;rounded=0;" vertex="1" parent="1">
          <mxGeometry x="210" y="450" width="60" height="30" as="geometry" />
        </mxCell>
        <mxCell id="Q1WMoiGNrO2WjmOugSal-34" value="&lt;font style=&quot;font-size: 14px;&quot;&gt;Register&lt;/font&gt;" style="text;strokeColor=none;align=center;fillColor=none;html=1;verticalAlign=middle;whiteSpace=wrap;rounded=0;" vertex="1" parent="1">
          <mxGeometry x="242" y="345" width="60" height="30" as="geometry" />
        </mxCell>
        <mxCell id="Q1WMoiGNrO2WjmOugSal-35" value="&lt;font style=&quot;font-size: 14px;&quot;&gt;Scaffolding&lt;/font&gt;" style="text;strokeColor=none;align=center;fillColor=none;html=1;verticalAlign=middle;whiteSpace=wrap;rounded=0;" vertex="1" parent="1">
          <mxGeometry x="250" y="300" width="60" height="30" as="geometry" />
        </mxCell>
        <mxCell id="Q1WMoiGNrO2WjmOugSal-42" value="&lt;span style=&quot;font-size: 14px;&quot;&gt;Export&lt;/span&gt;" style="text;strokeColor=none;align=center;fillColor=none;html=1;verticalAlign=middle;whiteSpace=wrap;rounded=0;" vertex="1" parent="1">
          <mxGeometry x="610" y="405" width="60" height="30" as="geometry" />
        </mxCell>
        <mxCell id="Q1WMoiGNrO2WjmOugSal-43" value="&lt;span style=&quot;font-size: 14px;&quot;&gt;Register&lt;/span&gt;" style="text;strokeColor=none;align=center;fillColor=none;html=1;verticalAlign=middle;whiteSpace=wrap;rounded=0;" vertex="1" parent="1">
          <mxGeometry x="660" y="530" width="60" height="30" as="geometry" />
        </mxCell>
        <mxCell id="Q1WMoiGNrO2WjmOugSal-44" value="&lt;span style=&quot;font-size: 14px;&quot;&gt;Create&lt;/span&gt;" style="text;strokeColor=none;align=center;fillColor=none;html=1;verticalAlign=middle;whiteSpace=wrap;rounded=0;" vertex="1" parent="1">
          <mxGeometry x="610" y="455" width="60" height="30" as="geometry" />
        </mxCell>
        <mxCell id="Q1WMoiGNrO2WjmOugSal-45" value="&lt;span style=&quot;font-size: 14px;&quot;&gt;Deploy&lt;/span&gt;" style="text;strokeColor=none;align=center;fillColor=none;html=1;verticalAlign=middle;whiteSpace=wrap;rounded=0;" vertex="1" parent="1">
          <mxGeometry x="522.5" y="550" width="60" height="30" as="geometry" />
        </mxCell>
      </root>
    </mxGraphModel>
  </diagram>
</mxfile>
